<svg width="16" height="16" viewBox="0 0 16 16" fill="none" xmlns="http://www.w3.org/2000/svg">
<path d="M7.99997 3.10001C4.8133 3.10001 2.21997 5.69334 2.21997 8.88001C2.21997 12.0667 4.8133 14.6667 7.99997 14.6667C11.1866 14.6667 13.78 12.0733 13.78 8.88667C13.78 5.70001 11.1866 3.10001 7.99997 3.10001ZM8.49997 8.66667C8.49997 8.94001 8.2733 9.16667 7.99997 9.16667C7.72664 9.16667 7.49997 8.94001 7.49997 8.66667V5.33334C7.49997 5.06001 7.72664 4.83334 7.99997 4.83334C8.2733 4.83334 8.49997 5.06001 8.49997 5.33334V8.66667Z" fill="#2E7FF1"/>
<path d="M9.92672 2.30001H6.07338C5.80672 2.30001 5.59338 2.08668 5.59338 1.82001C5.59338 1.55334 5.80672 1.33334 6.07338 1.33334H9.92672C10.1934 1.33334 10.4067 1.54668 10.4067 1.81334C10.4067 2.08001 10.1934 2.30001 9.92672 2.30001Z" fill="#2E7FF1"/>
</svg>
